<svg version="1.2" baseProfile="tiny-ps" xmlns="http://www.w3.org/2000/svg" viewBox="0 0 546 646" width="546" height="646">
	<title>logo-svg</title>
	<style>
		tspan { white-space:pre }
		.shp0 { fill: #865413 } 
	</style>
	<g id="Layer">
		<path id="Layer" class="shp0" d="M420.11 292.24C420.12 261.34 420.14 230.44 420.15 199.54C420.15 189.74 418.86 180.14 416.86 170.64C413.97 156.63 408.77 143.43 401.98 130.93C397.38 122.43 391.98 114.43 385.49 107.22C381.29 102.52 376.99 97.72 372.39 93.42C364.6 86.11 356.1 79.91 346.9 74.51C331.8 65.7 315.61 59.69 298.51 56.79C291.31 55.58 284.01 55.28 276.71 54.78C272.41 54.48 268.01 54.38 263.81 54.77C256.31 55.47 248.81 56.37 241.41 57.86C228.31 60.36 215.9 65.15 204 71.35C195 76.05 186.4 81.54 178.69 88.24C174.69 91.64 170.69 95.04 167.09 98.73C157.99 108.03 150.18 118.33 143.78 129.73C137.17 141.42 132.07 153.72 128.96 166.82C127.26 174.12 126.16 181.62 125.45 189.12C124.75 196.62 124.65 204.22 124.64 211.82C124.52 271.02 124.6 330.32 124.57 389.52C124.57 392.62 124.57 392.62 121.57 392.62C118.97 392.62 116.37 392.61 113.77 392.61C112.47 392.61 111.87 392.21 111.97 390.91C112.07 390.31 111.97 389.81 111.97 389.21C112 326.81 111.92 264.51 112.15 202.11C112.15 186.91 114.36 171.91 118.77 157.22C121.57 147.82 125.07 138.72 129.58 129.92C134.88 119.62 140.99 109.82 148.59 101.03C153.29 95.53 158.19 90.13 163.4 85.13C172.4 76.54 182.5 69.34 193.3 63.15C202.61 57.75 212.41 53.45 222.51 50.16C232.51 46.86 242.71 44.67 253.11 43.37C262.71 42.17 272.31 41.98 281.91 42.38C293.91 42.89 305.71 44.99 317.31 48.4C327.31 51.4 336.91 55.1 346.21 59.91C355.8 64.91 364.9 70.71 373.3 77.62C378 81.52 382.8 85.52 387.09 89.92C396.59 99.53 404.69 110.23 411.58 121.93C419.68 135.94 425.67 150.74 429.16 166.44C430.66 173.34 431.76 180.24 432.45 187.24C433.15 193.84 433.25 200.44 433.25 207.04C433.32 267.94 433.2 328.84 433.17 389.74C433.17 392.64 433.17 392.64 430.27 392.64C427.57 392.64 424.87 392.64 422.27 392.64C421.07 392.64 420.47 392.24 420.57 390.94C420.57 390.44 420.57 389.94 420.57 389.44C420.09 356.94 420.1 324.64 420.11 292.24Z" />
		<path id="Layer" class="shp0" d="M124.39 595.22C222.99 595.26 321.39 595.3 419.99 595.34C419.99 594.34 419.99 593.54 419.99 592.64C420 570.54 420.01 548.34 420.02 526.24C420.02 523.54 420.02 523.54 422.72 523.54C425.42 523.54 428.12 523.64 430.72 523.54C432.12 523.54 432.62 524.04 432.62 525.44C432.52 530.04 432.61 534.64 432.61 539.24C432.6 561.34 432.59 583.44 432.59 605.44C432.58 608.14 432.58 608.14 429.88 608.14C324.68 608.1 219.58 608.06 114.38 608.01C111.68 608.01 111.68 608.01 111.69 605.21C111.7 578.81 111.71 552.41 111.72 525.91C111.72 523.31 111.72 523.31 114.32 523.31C116.92 523.31 119.42 523.42 122.02 523.32C123.92 523.22 124.42 523.92 124.42 525.72C124.31 547.12 124.4 568.52 124.39 589.82C124.39 591.62 124.39 593.32 124.39 595.22Z" />
		<path id="Layer" class="shp0" d="M407.11 293.83C407.12 262.83 407.14 231.93 407.15 200.93C407.15 189.63 405.46 178.53 402.36 167.63C399.87 158.73 396.67 150.13 392.37 141.83C387.78 132.92 382.48 124.52 375.88 117.02C371.58 112.12 367.29 107.32 362.49 102.91C351.69 93.01 339.5 85.1 326 79.2C316.5 75 306.6 71.89 296.4 69.99C292 69.19 287.5 68.58 283 68.38C276.4 67.98 269.7 67.78 263.1 67.97C255.2 68.27 247.3 69.57 239.6 71.36C222.6 75.46 207 82.65 192.69 92.75C184.59 98.44 177.29 105.14 170.68 112.44C162.28 121.63 155.28 131.83 149.77 143.03C143.87 155.03 139.56 167.62 137.56 180.92C136.86 185.52 136.35 190.12 136.05 194.72C135.75 199.92 135.65 205.12 135.65 210.42C135.62 270.12 135.6 329.72 135.57 389.42C135.57 390.32 135.27 391.92 134.97 391.92C133.27 392.12 131.57 392.02 129.87 391.92C129.67 391.92 129.47 391.32 129.47 390.92C129.37 390.32 129.47 389.62 129.47 389.02C129.5 326.72 129.42 264.42 129.65 202.12C129.65 192.32 130.86 182.52 133.06 172.82C135.87 160.42 140.17 148.52 146.07 137.33C150.68 128.63 156.08 120.33 162.48 112.83C165.39 109.53 167.99 105.94 171.29 103.04C176.99 97.84 182.99 92.84 189.09 88.14C196.5 82.35 204.8 77.95 213.3 74.15C223.9 69.36 234.9 66.06 246.3 63.97C256.91 62.07 267.61 61.38 278.41 61.88C289.6 62.38 300.7 64.29 311.5 67.49C320.8 70.3 329.7 74 338.3 78.5C346.7 82.91 354.59 88.11 361.79 94.31C365.39 97.41 368.99 100.32 372.29 103.72C379.09 110.82 385.38 118.42 390.68 126.73C400.57 142.13 407.47 158.83 410.66 176.93C411.86 183.53 412.45 190.23 412.95 196.93C413.35 203.63 413.35 210.43 413.34 217.13C413.32 274.53 413.3 331.83 413.27 389.23C413.27 390.23 413.07 391.93 412.77 391.93C411.07 392.23 409.37 392.03 407.67 392.03C407.47 392.03 407.27 391.43 407.27 391.03C407.17 390.43 407.27 389.73 407.27 389.13C407.09 357.53 407.1 325.73 407.11 293.83Z" />
		<path id="Layer" class="shp0" d="M408.54 462.63C408.54 461.93 408.54 461.23 408.54 460.53C408.55 454.63 408.65 448.63 408.55 442.73C408.45 437.03 408.46 431.43 408.16 425.73C407.76 419.23 405.06 416.53 397.96 415.43C396.76 415.23 395.56 415.13 395.56 413.43C395.56 411.73 395.96 411.23 397.76 411.23C404.06 411.33 410.36 411.23 416.76 411.24C420.36 411.24 421.66 412.54 421.76 416.24C421.86 428.74 422.05 441.24 422.15 453.74C422.24 467.24 422.44 480.64 422.43 494.14C422.43 495.84 422.93 496.94 424.33 497.74C425.33 498.24 426.33 498.94 427.13 499.74C427.73 500.44 428.03 501.44 428.53 502.44C425.03 502.44 422.03 502.34 419.03 502.44C416.73 502.54 414.93 501.53 413.63 499.73C408.23 492.23 403.03 484.73 397.54 477.33C391.24 468.73 384.74 460.32 378.25 451.82C375.65 448.42 372.95 445.22 370.25 441.92C369.95 441.52 369.45 441.22 368.65 440.52C368.45 442.12 368.15 443.42 368.15 444.72C368.15 456.82 368.04 469.02 368.14 481.12C368.13 484.12 368.63 487.12 369.43 489.92C370.73 494.62 374.53 496.22 378.93 497.02C379.93 497.22 381.33 496.92 381.53 498.62C381.73 500.82 381.43 501.22 379.23 501.22C372.63 501.22 366.13 501.22 359.53 501.21C354.83 501.21 353.13 499.51 353.23 494.91C353.43 487.61 353.74 480.31 354.04 473.01C354.14 469.11 354.34 465.11 354.44 461.21C354.65 450.01 354.75 438.91 354.86 427.71C354.96 420.31 352.66 417.41 345.76 415.51C345.16 415.31 344.36 414.61 344.26 414.01C343.86 411.61 344.16 411.21 346.66 411.21C353.66 411.21 360.56 411.21 367.56 411.22C368.76 411.22 369.56 411.52 370.26 412.52C374.36 418.32 378.46 424.22 382.66 429.92C388.05 437.12 393.55 444.23 399.05 451.43C401.85 455.03 404.74 458.53 407.64 462.13C407.84 462.43 408.04 462.73 408.24 463.03C408.14 462.93 408.34 462.83 408.54 462.63Z" />
		<path id="Layer" fill-rule="evenodd" class="shp0" d="M150.75 453.83C153.45 454.33 156.05 454.73 158.75 455.23C162.45 456.03 165.45 457.53 167.14 461.53C171.04 470.64 175.34 479.64 179.43 488.64C181.43 493.04 184.43 496.14 189.33 496.94C191.33 497.24 191.13 498.54 191.13 499.94C191.13 501.64 189.83 501.24 188.93 501.24C182.63 501.24 176.33 501.24 170.03 501.24C165.93 501.23 164.73 500.43 163.33 496.63C161.43 491.33 159.83 486.03 157.84 480.73C155.74 475.33 153.34 469.93 151.04 464.63C149.84 461.93 147.44 460.63 144.74 460.23C141.54 459.82 138.34 459.82 135.14 459.82C133.14 459.82 131.94 461.32 131.94 463.22C131.84 471.62 131.44 480.02 132.93 488.32C133.73 492.82 136.53 495.42 140.93 496.42C141.73 496.62 142.53 496.72 143.33 496.93C145.13 497.43 145.73 498.43 145.13 500.13C145.03 500.53 144.23 501.03 143.73 501.03C135.83 501.12 127.93 501.12 120.03 501.02C116.23 500.91 114.53 499.11 114.63 495.41C114.83 488.21 115.14 481.01 115.44 473.91C115.54 471.01 115.74 468.21 115.84 465.31C116.05 457.31 116.05 449.41 116.25 441.41C116.35 437.81 116.65 434.21 116.56 430.51C116.46 427.61 116.06 424.71 115.56 421.81C115.06 419.01 112.96 417.41 110.46 416.41C109.26 415.91 107.96 415.71 106.86 415.21C106.36 414.91 105.66 414.21 105.66 413.71C105.36 411.31 105.66 411.11 108.06 411.11C123.26 411.12 138.46 411.02 153.66 411.23C157.46 411.23 161.26 411.33 164.76 413.33C169.96 416.34 172.36 421.24 172.66 426.94C173.05 434.94 170.55 441.94 164.55 447.53C161.35 450.53 157.45 451.83 153.35 452.93C152.55 453.13 151.85 453.33 151.05 453.53C150.65 453.63 150.75 453.73 150.75 453.83ZM131.75 438.82C131.75 443.12 131.65 447.52 131.75 451.82C131.75 452.72 132.35 453.52 132.75 454.42C133.55 453.82 134.55 453.32 135.25 452.62C135.65 452.22 135.75 451.42 136.15 451.02C136.95 450.32 137.85 449.52 138.95 449.22C139.95 448.82 141.15 448.92 142.35 448.72C146.75 448.23 150.15 446.23 152.65 442.63C155.45 438.73 155.55 434.33 154.86 429.83C154.36 426.43 152.86 423.43 149.66 421.73C144.26 418.73 138.56 419.12 132.86 420.72C132.56 420.82 132.16 421.32 132.16 421.62C131.96 423.22 131.76 424.92 131.76 426.52C131.66 430.62 131.75 434.72 131.75 438.82Z" />
		<path id="Layer" fill-rule="evenodd" class="shp0" d="M99.33 500.81C95.33 500.81 91.33 500.9 87.33 500.8C85.43 500.8 84.23 499.6 83.63 497.9C82.03 493.3 80.43 488.6 78.93 484C78.24 481.8 77.54 479.6 77.04 477.4C76.54 475.3 75.34 474.9 73.44 475.1C68.44 475.39 63.44 475.69 58.44 475.79C55.94 475.89 53.54 475.49 51.04 475.49C49.04 475.39 47.44 476.29 46.74 478.09C45.34 481.59 44.03 485.09 43.03 488.68C42.33 491.08 44.33 494.09 46.83 495.09C48.83 495.79 50.93 496.59 53.03 496.99C54.93 497.39 54.93 498.59 54.83 499.99C54.73 501.69 53.43 501.19 52.53 501.19C46.93 501.19 41.43 501.28 35.83 501.18C34.53 501.18 33.13 500.98 31.93 500.58C28.43 499.68 26.63 496.38 27.83 492.18C30.23 484.18 32.64 476.08 35.74 468.28C41.45 454.18 47.75 440.19 53.76 426.19C55.86 421.29 58.16 416.49 60.26 411.59C60.76 410.39 61.56 409.99 62.96 409.99C68.36 409.99 68.46 409.89 70.46 415C76.16 429.4 81.65 443.8 87.34 458.1C91.24 467.9 95.44 477.61 99.53 487.31C101.53 492.01 104.83 495.51 109.93 496.91C111.93 497.41 111.53 498.91 111.33 500.11C111.23 500.61 110.03 501.11 109.33 501.11C106.03 501.21 102.73 501.11 99.33 501.11C99.33 501.01 99.33 500.91 99.33 500.81ZM62.15 435.29C61.95 435.29 61.75 435.29 61.55 435.29C61.25 435.89 60.75 436.59 60.55 437.19C58.55 442.19 56.45 447.19 54.55 452.19C52.55 457.69 50.74 463.19 48.94 468.79C48.74 469.39 48.94 470.29 49.34 470.79C49.54 471.09 50.74 470.89 51.14 470.59C52.44 469.19 53.84 467.79 54.84 466.09C55.84 464.39 57.14 463.69 59.04 463.69C61.24 463.69 63.44 463.89 65.54 463.59C69.44 463.1 71.74 462.5 70.05 457.3C68.15 451.29 66.05 445.39 63.95 439.39C63.35 437.99 62.75 436.69 62.15 435.29Z" />
		<path id="Layer" fill-rule="evenodd" class="shp0" d="M339.83 501.4C335.73 501.2 331.73 501.1 327.63 500.8C325.43 500.7 324.23 499.2 323.63 497.2C321.43 490.5 319.23 483.9 317.34 477.2C316.74 475.2 315.74 474.99 314.04 475.09C309.44 475.39 304.74 475.69 300.14 475.79C297.34 475.89 294.54 475.59 291.74 475.39C289.54 475.28 287.74 476.18 287.04 477.98C285.54 481.48 284.33 485.08 283.53 488.78C282.83 491.58 284.53 493.68 287.13 494.78C289.13 495.58 291.23 496.29 293.33 496.79C295.13 497.19 295.53 498.09 295.43 499.69C295.33 501.49 294.03 500.99 293.03 500.99C287.73 500.98 282.43 501.08 277.13 500.98C275.63 500.98 274.23 500.78 272.83 500.48C268.43 499.48 267.53 496.18 268.53 491.58C270.54 482.18 274.14 473.28 277.84 464.38C281.35 455.88 285.05 447.38 288.65 438.98C291.66 431.99 294.86 424.99 297.96 418.09C298.96 415.89 299.86 413.59 300.96 411.49C301.36 410.79 302.26 410.09 302.96 409.99C308.96 409.59 308.96 409.59 311.16 415.29C317.96 432.6 324.65 449.9 331.54 467.1C334.24 473.9 337.34 480.6 340.33 487.4C342.33 492.01 345.63 495.31 350.53 496.81C352.13 497.31 352.73 498.71 352.13 500.21C351.93 500.61 351.03 501.01 350.53 501.01C347.13 501.11 343.63 501.01 340.23 501C339.83 501.3 339.83 501.3 339.83 501.4ZM302.45 434.99C302.15 434.99 301.95 434.99 301.65 435.09C298.65 442.79 295.65 450.49 292.74 458.19C291.44 461.59 290.34 465.18 289.24 468.68C289.04 469.38 289.34 470.18 289.44 470.98C290.14 470.78 291.14 470.88 291.64 470.49C292.94 469.19 294.34 467.79 295.24 466.19C296.24 464.49 297.64 463.79 299.44 463.79C301.44 463.79 303.54 463.99 305.54 463.69C310.04 463.09 312.04 462.79 310.35 457.39C308.65 451.89 306.65 446.59 304.75 441.19C304.15 439.09 303.25 437.09 302.45 434.99Z" />
		<path id="Layer" fill-rule="evenodd" class="shp0" d="M502.93 501.47C498.83 501.27 494.83 501.17 490.73 500.87C488.53 500.66 487.33 499.16 486.63 497.06C484.53 490.56 482.33 484.06 480.44 477.46C479.84 475.46 478.94 475.06 477.04 475.16C472.44 475.46 467.94 475.76 463.34 475.85C460.64 475.95 458.04 475.75 455.34 475.45C452.24 475.15 450.34 476.85 449.24 479.45C448.14 482.25 447.23 485.05 446.53 487.95C445.73 490.85 447.03 493.45 449.73 494.75C451.83 495.75 454.13 496.45 456.43 496.95C458.23 497.35 458.33 498.45 458.33 499.85C458.23 501.55 457.03 501.15 456.13 501.15C450.43 501.15 444.73 501.25 439.13 501.14C436.13 501.04 432.73 500.84 431.63 497.14C431.13 495.44 431.03 493.24 431.53 491.54C433.63 484.34 435.74 477.14 438.54 470.24C444.85 454.85 451.55 439.65 458.16 424.35C460.06 419.95 461.96 415.65 463.96 411.25C464.16 410.75 464.96 410.46 465.46 410.06C465.56 409.96 465.66 410.06 465.86 410.06C471.86 409.76 471.86 409.76 474.06 415.46C480.56 432.06 487.05 448.76 493.64 465.37C496.64 472.77 499.94 480.07 503.03 487.47C505.03 492.27 508.33 495.67 513.43 497.07C515.43 497.58 515.03 499.08 514.73 500.28C514.63 500.78 513.43 501.27 512.73 501.27C509.43 501.37 506.13 501.27 502.73 501.27C502.93 501.37 502.93 501.37 502.93 501.47ZM465.65 435.06C465.35 435.06 465.15 435.06 464.85 435.16C461.95 442.45 459.15 449.85 456.25 457.15C456.05 457.75 455.84 458.35 455.64 458.95C454.54 462.25 453.44 465.45 452.44 468.75C452.24 469.45 452.54 470.25 452.64 471.05C453.34 470.85 454.34 470.95 454.84 470.55C456.14 469.25 457.54 467.85 458.44 466.25C459.44 464.55 460.84 463.85 462.64 463.85C464.64 463.86 466.64 464.06 468.54 463.86C473.34 463.36 475.24 462.76 473.45 457.16C471.65 451.66 469.65 446.26 467.75 440.76C467.05 438.76 466.35 436.96 465.65 435.06Z" />
		<path id="Layer" class="shp0" d="M247.63 484.57C247.34 479.87 247.24 475.27 246.84 470.67C246.64 468.37 244.74 467.07 242.64 466.37C240.54 465.66 238.44 464.96 236.24 464.46C234.24 464.06 234.84 462.66 234.74 461.46C234.64 459.96 235.74 460.16 236.74 460.16C243.54 460.17 250.44 460.17 257.24 460.17C260.14 460.17 261.14 461.17 261.14 464.07C261.14 470.77 261.24 477.47 261.03 484.17C261.03 485.47 260.23 486.97 259.43 488.07C256.73 491.47 253.93 494.77 251.03 497.87C250.03 498.97 248.63 500.07 247.23 500.47C232.13 504.46 218.43 501.76 206.23 491.85C197.53 484.85 192.94 475.55 191.44 464.54C190.25 455.74 190.95 447.14 194.25 438.95C197.16 431.55 201.36 425.15 207.56 419.95C213.46 415.05 219.96 411.86 227.46 410.46C232.46 409.56 237.46 409.66 242.46 410.37C246.16 410.97 249.96 411.87 253.56 412.87C257.26 413.87 258.06 415.47 257.06 419.17C255.56 424.67 253.96 430.17 252.35 435.67C252.15 436.27 251.25 436.87 250.65 436.87C249.95 436.87 248.95 436.27 248.65 435.67C247.66 433.27 246.86 430.77 245.96 428.37C242.46 418.77 234.96 416.56 225.96 418.96C216.76 421.45 211.56 428.25 208.35 436.75C206.05 442.75 205.65 448.95 206.35 455.35C206.94 461.35 208.44 466.95 212.04 471.85C217.14 478.86 223.93 483.16 232.53 484.46C237.43 485.46 242.23 485.17 247.63 484.57Z" />
		<path id="Layer" class="shp0" d="M135.49 581.82C226.09 581.86 316.39 581.9 406.99 581.93C407 581.03 407 580.23 407 579.43C407 561.63 407.01 543.83 407.02 526.03C407.02 523.53 407.02 523.53 409.52 523.53C413.52 523.53 413.12 523.13 413.12 527.13C413.11 546.63 413.1 566.23 413.09 585.73C413.09 588.23 413.09 588.23 410.59 588.23C317.69 588.2 224.79 588.16 131.89 588.12C129.39 588.12 129.39 588.12 129.39 585.52C129.4 565.62 129.41 545.72 129.42 525.82C129.42 523.82 130.02 523.32 131.92 523.32C136.02 523.52 135.62 522.92 135.62 527.02C135.61 544.42 135.6 561.72 135.6 579.12C135.5 579.92 135.5 580.82 135.49 581.82Z" />
		<path id="Layer" class="shp0" d="M234.79 335.56C238.49 335.06 241.1 332.86 243.9 330.77C250.4 325.77 254.2 319.17 255.9 311.27C257.11 305.67 258.61 300.17 261.71 295.27C264.01 291.67 267.61 290.28 271.91 292.48C276.31 294.88 279.91 297.88 281.71 302.68C282.31 304.28 282.31 306.18 282.21 307.88C281.8 314.68 281.6 321.48 282.7 328.18C283.1 330.78 284.7 332.58 286.9 333.98C288.09 334.78 288.79 336.08 289.79 337.08C288.49 337.58 287.19 338.08 285.79 338.38C285.29 338.58 284.69 338.38 284.09 338.38C273.59 338.38 263.19 338.47 252.69 338.27C247.39 338.17 242.09 337.57 236.79 337.16C236.09 337.06 235.39 336.56 234.69 336.26C234.79 336.06 234.79 335.86 234.79 335.56Z" />
		<path id="Layer" fill-rule="evenodd" class="shp0" d="M240.88 367.76C240.98 375.16 238.68 380.76 232.08 383.56C225.17 386.46 218.37 385.76 212.38 380.85C210.08 378.85 208.78 376.15 208.18 373.15C207.38 368.65 207.38 364.15 209.48 359.95C212.99 353.05 219.39 351.06 226.29 351.66C229.79 351.96 233.19 352.96 235.89 355.46C239.59 358.86 241.08 363.26 240.88 367.76ZM224.29 357.16C221.09 357.16 218.99 358.06 217.28 360.26C214.18 364.15 214.38 368.65 215.58 373.15C216.58 376.75 219.88 379.26 223.38 379.46C228.28 379.66 231.48 377.76 232.88 373.76C233.78 371.16 233.88 368.56 233.68 365.76C233.28 360.76 229.19 356.76 224.29 357.16Z" />
		<path id="Layer" class="shp0" d="M320.99 357.6C320.98 360.1 320.98 362.3 320.98 364.8C321.68 364.8 322.38 364.9 322.98 364.9C327.28 364.9 331.68 365 335.98 364.9C337.48 364.9 338.28 365.3 338.08 366.9C338.08 367.1 338.08 367.3 338.08 367.5C338.08 370.3 338.08 370.3 335.38 370.3C331.28 370.3 327.18 370.3 323.18 370.3C322.48 370.3 321.78 370.4 320.98 370.4C320.98 373.3 320.98 376.1 320.98 379.1C321.78 379.1 322.58 379.1 323.28 379.1C328.28 379.1 333.18 379.1 338.18 379.1C339.48 379.1 339.98 379.5 339.98 380.9C340.07 384.5 340.07 384.5 336.57 384.5C329.77 384.5 322.97 384.5 316.07 384.5C314.47 384.49 313.87 384.09 313.88 382.29C313.98 372.99 313.98 363.69 313.89 354.39C313.89 352.69 314.49 352.29 316.09 352.3C323.09 352.4 329.99 352.4 336.99 352.3C339.29 352.3 339.29 353.4 339.19 355C339.19 356.6 339.29 357.8 336.99 357.7C331.89 357.5 326.59 357.6 320.99 357.6Z" />
		<path id="Layer" class="shp0" d="M162.58 364.73C166.98 364.73 171.18 364.74 175.78 364.74C175.78 361.44 175.79 358.34 175.79 355.14C175.79 352.14 175.79 352.14 178.69 352.14C183.29 352.14 182.69 351.54 182.69 356.24C182.68 364.84 182.68 373.44 182.68 382.04C182.67 383.84 182.07 384.34 180.37 384.34C175.77 384.24 175.77 384.34 175.78 379.64C175.78 376.74 175.78 373.94 175.78 371.04C175.78 370.84 175.68 370.64 175.68 370.34C171.38 370.34 167.08 370.33 162.58 370.33C162.58 370.93 162.48 371.63 162.48 372.23C162.48 375.63 162.48 379.13 162.48 382.53C162.48 383.73 162.07 384.33 160.87 384.23C154.47 384.13 155.67 385.13 155.68 379.23C155.58 370.93 155.68 362.63 155.59 354.33C155.59 352.43 156.19 351.93 157.99 351.93C162.49 352.03 162.49 351.93 162.49 356.53C162.49 358.93 162.48 361.33 162.48 363.83C162.38 364.23 162.48 364.43 162.58 364.73Z" />
		<path id="Layer" fill-rule="evenodd" class="shp0" d="M392.81 557.13C395.4 561.03 397.8 564.93 400.5 569.03C398.5 569.03 397 569.13 395.4 568.93C394.9 568.93 394.4 568.23 394.1 567.73C392.1 564.73 390.3 561.63 388.3 558.52C388 558.02 387.2 557.62 386.7 557.52C384.5 557.42 382.4 557.52 379.8 557.52C379.8 559.72 379.8 561.82 379.8 563.82C379.8 564.72 379.7 565.62 379.8 566.52C380 568.42 379.4 569.22 377.4 569.02C374.8 568.82 374.8 569.02 374.8 566.52C374.8 558.52 374.81 550.42 374.81 542.42C374.81 539.92 374.81 539.92 377.41 539.92C381.51 539.92 385.61 539.92 389.61 539.92C394.51 540.03 398.21 542.73 398.81 546.63C399.41 550.53 398.31 554.63 393.91 556.33C393.71 556.53 393.41 556.73 392.81 557.13ZM380.01 544.12C380.01 547.32 380.01 550.22 380.01 553.32C383.41 553.32 386.61 553.42 389.71 553.32C392.51 553.23 394.01 551.43 394.01 548.53C394.01 546.13 392.41 544.33 389.71 544.22C386.61 544.02 383.41 544.12 380.01 544.12Z" />
		<path id="Layer" class="shp0" d="M214.9 558.25C212.7 558.25 210.5 558.15 208.3 558.25C206.6 558.35 206.6 557.35 206.71 556.15C206.71 554.95 206.71 553.95 208.31 554.05C211.61 554.15 214.81 554.15 218.11 554.06C219.41 554.06 219.81 554.56 219.81 555.76C219.7 557.96 219.7 560.06 219.8 562.26C219.9 563.86 219.3 564.96 218.1 565.86C212.7 570.25 201.8 570.85 196.7 566.15C194.7 564.35 193.3 562.15 192.6 559.65C191.51 555.84 191.61 551.94 192.91 548.25C194.91 542.35 198.71 540.25 204.51 539.55C207.91 539.15 211.31 539.55 214.51 541.25C216.81 542.55 218.21 544.46 219.11 546.96C217.81 547.36 216.61 547.85 215.41 548.05C215.01 548.15 214.31 547.75 214.11 547.35C211.81 543.55 207.41 543.05 203.01 544.05C199.51 544.95 197.61 547.85 197.01 552.05C196.61 554.95 196.8 557.75 198.1 560.35C199.7 563.35 202.1 565.25 205.7 565.05C207.4 564.95 209.2 565.05 210.8 564.55C215.3 563.35 215.5 562.45 214.9 558.25Z" />
		<path id="Layer" fill-rule="evenodd" class="shp0" d="M293.31 554.49C293.31 550.19 293.31 545.99 293.31 541.69C293.31 540.79 293.31 539.89 294.51 539.99C299.31 540.19 304.21 540.09 308.91 540.79C314.01 541.59 317.41 546.1 318.21 551.2C318.91 555.5 318.2 559.4 316.1 563.1C313.9 566.99 310.2 568.69 306 568.99C302.4 569.29 298.7 568.99 295.1 569.09C293.6 569.09 293.3 568.49 293.3 567.19C293.3 562.89 293.3 558.69 293.31 554.49ZM298 564.79C300.4 564.79 302.6 564.99 304.7 564.69C306.4 564.49 308.2 563.79 309.8 562.89C312.3 561.39 313.2 558.79 313.51 556.09C314.01 551.69 313.01 547.09 308.81 545.09C305.31 543.39 301.61 544.09 298.01 544.09C298.01 551.19 298 557.79 298 564.79Z" />
		<path id="Layer" class="shp0" d="M273.49 357.58C270.59 357.58 267.99 357.48 265.39 357.57C263.59 357.67 262.99 356.97 263.19 355.27C263.19 354.87 263.19 354.47 263.19 354.17C262.99 352.67 263.69 352.17 265.19 352.17C272.89 352.28 280.59 352.28 288.29 352.18C289.89 352.18 290.59 352.68 290.39 354.28C290.29 354.78 290.39 355.28 290.39 355.78C290.49 357.08 289.99 357.58 288.59 357.58C285.99 357.48 283.39 357.58 280.49 357.58C280.49 358.38 280.38 359.18 280.38 359.88C280.38 367.38 280.38 374.78 280.38 382.28C280.37 383.98 279.87 384.48 278.17 384.48C273.47 384.48 273.47 384.48 273.48 379.68C273.48 373.18 273.48 366.68 273.48 360.18C273.48 359.38 273.49 358.68 273.49 357.58Z" />
		<path id="Layer" fill-rule="evenodd" class="shp0" d="M270.3 568.78C270.1 568.88 270.1 568.88 270 568.88C265.7 569.27 265.7 569.27 264.1 565.27C262.3 560.87 262.3 560.87 257.6 560.87C255.7 560.87 253.8 560.77 251.9 560.97C251.1 561.07 250.2 561.67 249.8 562.37C249.2 563.37 248.9 564.57 248.4 565.67C246.9 569.27 246.5 569.47 242.2 568.57C243.2 566.17 244.1 563.77 245.1 561.37C247.91 554.57 250.71 547.87 253.41 541.07C253.91 539.77 254.81 539.67 255.81 539.77C257.11 539.87 258.71 539.07 259.51 540.97C263.11 550.07 266.8 559.18 270.4 568.18C270.3 568.38 270.3 568.58 270.3 568.78ZM260.71 556.57C259.31 552.97 258.01 549.47 256.71 546.07C256.51 546.07 256.31 545.97 256.11 545.97C254.81 549.37 253.51 552.87 252.11 556.57C255.21 556.57 257.81 556.57 260.71 556.57Z" />
		<path id="Layer" fill-rule="evenodd" class="shp0" d="M170.4 568.74C170.1 568.84 169.9 568.94 169.7 568.94C165.7 569.13 165.7 569.13 164.2 565.43C162.5 560.93 162.5 560.93 157.7 560.93C155.8 560.93 153.9 561.03 152 560.93C150.7 560.83 150 561.43 149.6 562.63C149.1 564.23 148.3 565.63 147.9 567.23C147.5 568.73 146.6 569.13 145.2 569.03C144.3 568.93 143.3 569.03 142.1 569.02C143.6 565.23 145 561.73 146.5 558.23C148.71 552.73 151.01 547.13 153.31 541.63C153.71 540.53 154.31 539.73 155.71 539.93C157.11 540.23 158.81 539.13 159.61 541.23C163.11 550.13 166.8 559.03 170.3 567.94C170.4 568.04 170.4 568.34 170.4 568.74ZM152.11 556.53C155.31 556.53 157.91 556.53 160.91 556.53C159.51 552.93 158.21 549.43 156.81 546.03C156.61 546.03 156.41 546.03 156.31 545.93C154.91 549.43 153.61 552.83 152.11 556.53Z" />
		<path id="Layer" class="shp0" d="M372.28 379.12C376.38 379.12 380.28 379.12 384.18 379.12C384.98 379.12 385.88 379.12 386.68 379.12C389.58 379.12 389.58 379.12 389.58 381.92C389.57 384.52 389.57 384.52 387.07 384.52C380.67 384.52 374.17 384.52 367.77 384.52C366.07 384.52 365.37 384.11 365.48 382.31C365.58 373.02 365.58 363.72 365.49 354.41C365.49 352.81 365.99 352.32 367.59 352.32C372.39 352.32 372.39 352.32 372.39 357.02C372.28 364.22 372.28 371.42 372.28 379.12Z" />
		<path id="Layer" class="shp0" d="M173.24 228.44C177.44 230.04 181.64 231.24 185.54 233.14C187.74 234.14 189.83 235.84 191.53 237.64C194.13 240.45 194.13 245.05 191.93 248.34C191.63 248.74 191.13 249.04 190.63 249.24C184.13 251.24 178.63 248.14 176.23 242.84C174.13 238.14 173.54 233.24 173.24 228.44Z" />
		<path id="Layer" class="shp0" d="M206.25 209.85C209.04 212.25 211.74 214.75 214.64 217.05C217.94 219.66 219.54 222.96 220.24 226.96C220.64 229.16 218.04 233.56 216.04 234.45C215.74 234.65 215.34 234.65 214.94 234.65C209.54 234.55 205.04 230.35 204.24 225.05C203.34 219.55 204.74 214.55 206.25 209.85Z" />
		<path id="Layer" class="shp0" d="M221.53 250.86C225.83 249.86 229.93 250.46 233.93 251.56C235.93 252.06 237.73 253.26 239.63 254.16C242.53 255.57 244.22 261.47 243.52 264.87C243.12 267.07 239.72 268.36 237.32 268.46C232.72 268.66 229.82 265.86 227.62 262.16C225.93 259.26 224.63 256.16 223.13 253.16C222.73 252.26 222.13 251.66 221.53 250.86Z" />
		<path id="Layer" class="shp0" d="M310.65 198.99C313.95 203.39 316.45 208.3 317.14 214C317.74 218.5 313.24 224.69 308.84 224.79C307.34 224.79 305.44 223.29 304.24 221.99C301.54 218.99 301.54 213.69 304.05 209.69C304.95 208.29 306.15 206.99 306.95 205.49C308.25 203.39 309.45 201.09 310.65 198.99Z" />
		<path id="Layer" class="shp0" d="M348.91 306.11C345.51 304.11 342.01 302.11 338.61 300C336.21 298.5 334.41 296.6 333.31 293.9C332.01 291 332.61 286.8 334.92 284.5C335.42 284 336.22 283.7 336.92 283.7C341.72 283.61 345.91 285.31 348.01 290.41C350.01 295.21 350.01 301.91 348.91 306.11Z" />
		<path id="Layer" class="shp0" d="M221.76 182.16C223.56 185.46 225.25 188.86 227.05 192.16C228.65 195.06 228.95 198.06 228.75 201.16C228.55 203.96 224.95 207.56 222.05 207.96C221.55 208.06 221.05 207.86 220.65 207.66C215.75 205.55 213.35 200.45 214.55 195.25C215.55 190.75 217.85 187.06 220.66 183.56C220.96 183.06 221.46 182.46 221.76 182.16Z" />
		<path id="Layer" class="shp0" d="M250.76 171.37C250.96 174.67 250.96 177.97 251.26 181.17C251.66 185.57 250.85 189.57 247.75 192.87C245.65 195.07 242.75 195.07 239.85 194.76C239.45 194.66 238.95 194.06 238.65 193.66C235.25 188.86 235.36 184.16 238.96 179.46C241.26 176.46 247.36 172.37 250.76 171.37Z" />
		<path id="Layer" class="shp0" d="M341.16 183.01C339.65 187.1 338.35 191.3 336.55 195.2C333.85 201 328.85 204.1 322.85 201C322.25 200.7 321.65 200 321.45 199.4C319.85 193.4 322.05 188.5 327.66 185.9C332.06 183.7 336.66 183.1 341.16 183.01Z" />
		<path id="Layer" class="shp0" d="M199.11 300.45C201.51 298.45 204.01 296.45 206.31 294.25C209.11 291.55 212.41 289.95 216.21 289.45C218.71 289.16 223.31 292.06 224.21 294.56C224.31 294.86 224.31 295.16 224.21 295.46C222.81 300.76 220.51 303.76 214.91 304.65C210.91 305.35 202.01 302.85 199.11 300.45Z" />
		<path id="Layer" class="shp0" d="M209.92 280.65C212.52 277.85 214.92 275.05 217.52 272.46C220.32 269.66 223.62 267.66 227.82 267.96C230.42 268.16 232.32 269.76 234.02 271.66C234.32 271.96 234.42 272.66 234.32 273.06C233.62 278.56 230.82 282.26 224.92 283.16C219.52 284.16 214.52 282.45 209.92 280.65Z" />
		<path id="Layer" class="shp0" d="M247.45 200.37C252.25 203.17 256.25 206.37 259.04 210.77C261.84 215.17 260.84 221.97 256.74 224.87C256.04 225.37 254.74 225.37 253.84 225.17C248.04 223.87 246.74 221.17 245.94 215.47C245.74 213.97 246.04 212.47 246.34 210.97C246.65 209.27 247.25 207.47 247.45 205.77C247.65 204.17 247.45 202.47 247.45 200.37Z" />
		<path id="Layer" class="shp0" d="M303.56 161.49C301.16 166.09 299.26 170.79 296.46 174.79C293.16 179.49 289.26 180.18 284.46 178.18C282.46 177.38 281.56 174.68 282.16 171.78C283.36 165.38 287.46 163.28 293.36 161.89C295.06 161.49 296.86 161.49 298.66 161.39C300.16 161.39 301.86 161.49 303.56 161.49Z" />
		<path id="Layer" class="shp0" d="M201.53 236.35C204.83 239.35 208.23 242.15 211.43 245.15C213.73 247.35 214.83 250.15 214.93 253.35C215.03 256.35 213.43 258.35 211.32 260.15C211.02 260.45 210.52 260.55 210.12 260.55C204.03 259.65 200.53 257.25 199.33 250.35C198.63 247.05 200.03 239.15 201.53 236.35Z" />
		<path id="Layer" class="shp0" d="M174.55 209.54C176.55 209.04 178.75 208.34 181.05 208.04C184.45 207.44 187.95 207.34 191.35 208.44C196.25 210.05 198.54 214.65 198.44 219.25C198.44 219.65 198.14 220.15 197.74 220.55C194.44 224.25 189.94 224.64 184.94 221.44C183.74 220.64 182.64 219.44 181.64 218.34C179.34 215.44 177.04 212.54 174.55 209.54Z" />
		<path id="Layer" class="shp0" d="M271.84 217.28C275.44 222.18 278.34 227.48 278.14 234.08C277.93 238.08 274.33 242.58 270.43 243.18C268.13 243.48 266.43 241.87 265.23 240.27C262.43 236.37 263.24 232.37 265.24 228.37C266.14 226.67 267.44 225.28 268.34 223.68C269.54 221.48 270.64 219.38 271.84 217.28Z" />
		<path id="Layer" class="shp0" d="M307.6 311.29C303.2 311.09 298.6 310.89 294.21 309.09C288.31 306.68 286.11 302.78 286.81 296.48C287.01 295.18 287.51 294.38 288.71 293.68C294.71 290.59 299.91 294.29 302.61 299.79C303.21 300.99 303.51 302.29 304.01 303.49C305.21 305.99 306.41 308.49 307.6 311.29Z" />
		<path id="Layer" class="shp0" d="M322.56 168.6C322.46 173.9 321.86 179.4 318.66 184.1C315.45 188.99 310.85 189.39 305.85 188.29C305.45 188.19 305.05 187.69 304.75 187.39C302.26 183.19 303.36 177.69 307.46 175.09C309.76 173.59 312.46 172.69 314.96 171.59C317.46 170.5 319.96 169.6 322.56 168.6Z" />
		<path id="Layer" class="shp0" d="M270.56 175.08C274.26 179.98 278.26 184.88 278.15 191.68C278.05 195.58 275.05 199.78 271.35 200.98C270.85 201.18 270.25 201.08 269.75 200.88C265.25 199.57 262.45 194.77 263.85 189.97C264.75 186.87 266.56 183.97 267.86 180.98C268.76 179.18 269.56 177.28 270.56 175.08Z" />
		<path id="Layer" class="shp0" d="M290.45 192.48C292.35 195.99 293.75 199.99 294.35 204.29C294.85 208.39 294.14 212.09 290.84 214.78C289.14 216.08 286.94 217.08 284.84 217.38C282.54 217.78 281.44 215.48 280.34 213.88C277.85 210.08 279.45 206.48 281.35 202.98C281.75 202.28 282.35 201.68 282.85 200.98C285.45 198.08 287.95 195.28 290.45 192.48Z" />
		<path id="Layer" class="shp0" d="M225.2 317.26C226.7 314.16 228.1 310.96 229.51 307.86C230.81 305.16 232.31 302.66 234.81 300.86C237.91 298.66 242.11 299.07 245.01 300.97C245.51 301.27 245.91 301.87 246.01 302.47C247.21 306.97 245.4 311.87 241.4 314.26C236.4 317.36 230.6 317.66 225.2 317.26Z" />
		<path id="Layer" class="shp0" d="M363.14 221.61C361.64 227.11 359.94 232.31 355.73 236.21C351.53 240.11 347.03 239.91 342.43 237.41C341.93 237.11 341.53 236.31 341.33 235.71C340.24 230.3 343.44 225.31 348.94 224.11C351.84 223.51 354.84 223.31 357.74 222.91C359.44 222.51 361.14 222.01 363.14 221.61Z" />
		<path id="Layer" class="shp0" d="M307.33 245.99C304.93 250.99 301.83 255.89 296.53 258.79C291.82 261.39 287.33 259.48 284.03 256.78C283.83 256.58 283.63 256.28 283.53 255.98C283.13 253.38 283.93 248.88 287.23 246.98C290.33 245.18 293.73 244.79 297.13 245.09C300.53 245.39 303.83 245.69 307.33 245.99Z" />
		<path id="Layer" class="shp0" d="M151.03 244.13C154.53 243.73 157.93 243.43 161.33 242.93C165.03 242.43 168.53 242.84 171.73 244.94C174.03 246.44 175.63 250.54 174.93 253.14C174.83 253.64 174.23 254.14 173.73 254.54C168.63 258.84 163.63 258.23 158.73 254.33C155.33 251.43 152.93 247.73 151.03 244.13Z" />
		<path id="Layer" class="shp0" d="M298.24 220.69C298.44 223.19 298.84 225.89 298.64 228.59C298.44 231.79 298.04 234.99 296.23 237.89C293.73 241.79 289.93 242.98 285.53 242.68C285.13 242.68 284.63 242.48 284.33 242.18C281.73 239.68 281.14 234.98 283.04 231.78C284.54 229.28 286.54 227.38 289.14 225.98C292.24 224.49 295.04 222.59 298.24 220.69Z" />
		<path id="Layer" class="shp0" d="M205.39 93.55C206.89 94.95 208.59 96.15 209.99 97.65C211.29 99.05 212.39 99.25 213.99 98.25C215.79 97.15 217.69 96.36 220.09 95.16C219.79 96.36 219.79 97.06 219.49 97.66C218.79 99.26 218.09 100.76 217.39 102.36C216.69 103.65 216.89 104.65 218.19 105.66C219.79 106.96 221.19 108.66 222.69 110.16C222.59 110.36 222.59 110.56 222.49 110.76C221.59 110.76 220.59 110.96 219.69 110.86C218.39 110.76 217.19 110.46 215.99 110.25C214.39 109.95 213.19 110.35 212.58 112.15C211.98 113.65 211.18 115.15 210.48 116.65C210.28 117.05 209.88 117.35 209.48 117.65C209.18 117.25 208.68 116.85 208.58 116.45C208.18 114.75 207.68 113.15 207.59 111.45C207.39 109.45 206.19 108.95 204.49 108.75C202.89 108.55 201.39 108.35 199.79 108.05C199.39 107.95 198.99 107.55 198.69 107.25C198.99 106.85 199.29 106.45 199.69 106.15C201.29 105.25 202.89 104.35 204.59 103.55C205.79 102.95 206.19 102.05 205.89 100.75C205.39 98.55 205.09 96.35 204.69 94.15C204.79 93.85 205.09 93.75 205.39 93.55Z" />
		<path id="Layer" class="shp0" d="M164.37 157.23C164.17 159.43 164.26 161.13 163.86 162.73C163.56 164.13 164.16 164.73 165.26 165.23C166.96 166.03 168.76 166.84 170.46 167.64C170.86 167.84 171.16 168.24 171.56 168.54C171.16 168.84 170.76 169.34 170.36 169.54C168.56 170.04 166.76 170.43 164.96 170.73C163.56 170.93 162.96 171.63 162.86 173.03C162.76 174.73 162.66 176.43 162.46 178.13C162.36 178.73 161.86 179.33 161.56 179.83C161.06 179.43 160.56 179.13 160.26 178.63C159.26 177.13 158.46 175.53 157.56 174.03C156.96 173.03 156.36 172.63 155.06 172.93C153.36 173.43 151.56 173.73 149.86 174.03C149.36 174.13 148.66 173.83 148.16 173.73C148.36 173.13 148.46 172.53 148.76 172.13C149.86 170.83 150.96 169.53 152.16 168.33C152.96 167.53 153.16 166.63 152.56 165.63C151.66 164.13 150.76 162.63 149.87 161.03C149.57 160.53 149.57 159.93 149.47 159.33C150.17 159.33 150.87 159.23 151.37 159.43C153.07 160.03 154.57 160.93 156.26 161.43C157.06 161.63 158.26 161.23 158.87 160.73C160.07 159.73 160.97 158.33 162.07 157.23C162.57 156.73 163.17 156.43 163.77 156.13C164.17 156.53 164.37 157.13 164.37 157.23Z" />
		<path id="Layer" class="shp0" d="M372.06 168.12C374.06 167.22 376.06 166.32 378.06 165.42C379.46 164.82 380.16 164.12 379.66 162.32C379.27 160.72 379.27 158.92 379.17 157.22C379.17 156.82 379.47 156.02 379.67 156.02C380.17 156.02 380.77 156.22 381.17 156.62C382.27 157.82 383.27 159.02 384.17 160.22C385.06 161.42 386.16 161.92 387.66 161.22C389.07 160.52 390.57 159.93 392.07 159.33C392.77 159.03 393.47 159.03 394.17 158.83C394.27 159.03 394.47 159.13 394.57 159.33C393.87 160.63 393.16 162.03 392.36 163.33C391.96 164.03 391.66 164.63 391.16 165.33C390.36 166.43 390.46 167.33 391.46 168.33C392.66 169.53 393.76 170.83 394.86 172.13C395.16 172.53 395.26 173.23 395.36 173.83C394.86 173.93 394.26 174.23 393.76 174.13C391.96 173.83 390.16 173.52 388.36 173.02C387.16 172.72 386.56 173.12 386.06 174.02C385.06 175.62 384.16 177.32 383.06 178.92C382.76 179.32 382.26 179.62 381.86 179.92C381.56 179.42 381.16 179.02 381.06 178.52C380.86 176.82 380.66 175.12 380.66 173.42C380.66 171.82 380.06 171.12 378.56 170.82C376.86 170.52 375.16 170.12 373.56 169.72C372.96 169.52 372.46 169.12 371.86 168.82C371.96 168.52 372.06 168.32 372.06 168.12Z" />
		<path id="Layer" class="shp0" d="M334.18 117.9C333.28 116.2 332.38 114.5 331.48 112.7C330.09 109.9 329.99 109.9 326.89 110.4C325.09 110.7 323.19 110.8 321.39 111C321.29 110.7 321.09 110.5 320.99 110.2C322.09 109.1 323.09 107.8 324.39 106.8C327.19 104.6 327.39 104 325.79 100.9C325.19 99.6 324.49 98.4 323.99 97.1C323.79 96.7 323.99 96.3 323.99 95.9C324.49 95.9 324.99 95.8 325.39 96C326.99 96.8 328.59 97.5 330.09 98.5C331.49 99.4 332.49 99 333.59 97.9C335.09 96.4 336.79 95.1 338.39 93.7C338.59 93.8 338.79 93.8 338.99 93.9C338.99 94.7 339.09 95.6 338.99 96.4C338.79 97.8 338.69 99.2 338.19 100.5C337.59 102.3 338.39 103.1 339.79 103.8C341.29 104.51 342.69 105.31 344.19 106.21C344.59 106.41 344.79 106.91 345.09 107.31C344.69 107.61 344.29 108.01 343.79 108.11C342.29 108.41 340.79 108.6 339.29 108.8C337.59 109 336.49 109.5 336.19 111.5C335.98 113.7 335.38 115.8 334.88 117.9C334.68 117.8 334.38 117.9 334.18 117.9Z" />
		<path id="Layer" class="shp0" d="M377.43 249.82C372.43 253.72 367.53 257.92 360.43 257.31C357.13 257.01 353.13 253.91 352.23 250.71C352.13 250.31 352.23 249.71 352.33 249.21C353.73 244.31 358.63 242.01 364.13 243.71C366.43 244.42 368.63 245.82 370.83 246.82C373.03 247.82 375.03 248.72 377.43 249.82Z" />
		<path id="Layer" class="shp0" d="M264.53 249.17C267.93 253.98 271.53 258.88 271.22 265.38C271.02 268.88 267.82 273.28 264.42 273.97C262.02 274.47 260.42 272.77 259.12 271.17C256.52 267.97 257.02 264.37 258.32 260.87C259.13 258.97 260.43 257.27 261.43 255.37C262.43 253.47 263.43 251.37 264.53 249.17Z" />
		<path id="Layer" class="shp0" d="M323.81 296.4C318.61 297.6 313.21 298.29 307.91 295.99C304.61 294.59 302.81 291.99 302.21 288.39C301.91 286.49 301.52 284.59 303.82 283.29C306.82 281.59 309.62 281.19 312.72 282.89C315.82 284.59 317.71 287.3 319.51 290.2C320.71 292.3 322.31 294.2 323.81 296.4Z" />
		<path id="Layer" class="shp0" d="M182.42 260.44C186.42 261.04 190.32 261.44 194.22 262.35C197.62 263.05 200.82 264.55 202.02 268.05C202.62 270.05 202.22 272.35 202.22 274.55C202.22 274.85 201.82 275.15 201.42 275.35C196.12 278.05 191.02 277.14 187.32 272.14C184.82 268.84 183.62 264.94 182.52 261.04C182.32 260.64 182.42 260.34 182.42 260.44Z" />
		<path id="Layer" class="shp0" d="M154.12 276.73C156.22 274.23 158.42 271.73 160.42 269.23C162.22 266.93 164.32 265.33 167.02 264.33C170.52 263.04 173.22 264.34 175.72 266.64C176.32 267.14 176.62 268.34 176.52 269.14C175.92 275.04 171.62 278.64 165.62 278.73C161.22 278.73 156.72 277.93 154.12 276.73Z" />
		<path id="Layer" class="shp0" d="M361.02 273.71C356.22 275.51 351.12 276.81 345.82 275.61C340.62 274.4 339.02 270.7 338.32 266.2C338.22 265.6 338.82 264.6 339.32 264.1C342.72 260.91 347.42 260.61 351.12 263.61C352.42 264.61 353.62 265.91 354.72 267.21C356.82 269.31 358.92 271.51 361.02 273.71Z" />
		<path id="Layer" class="shp0" d="M172.31 294.94C174.91 292.04 177.51 288.94 180.31 286.24C183.52 283.04 188.52 281.44 192.71 284.85C194.51 286.25 194.91 287.25 194.31 289.45C193.21 293.85 190.61 296.44 186.01 297.24C182.21 297.74 175.11 296.74 172.31 294.94Z" />
		<path id="Layer" class="shp0" d="M297.12 269.79C294.52 273.89 291.52 277.99 286.62 280.18C282.72 281.98 277.92 281.08 275.12 277.88C274.62 277.28 274.22 276.18 274.32 275.28C274.72 271.38 276.92 269.08 280.72 267.98C283.82 267.18 286.72 267.88 289.72 268.48C292.22 268.99 294.72 269.39 297.12 269.79Z" />
		<path id="Layer" class="shp0" d="M241.64 232.06C245.44 234.27 249.33 236.77 251.93 240.87C254.83 245.37 254.23 249.27 251.23 253.37C250.23 254.67 248.93 254.77 247.43 254.47C242.73 253.47 240.93 251.06 240.23 245.46C240.03 243.86 240.43 242.16 240.63 240.56C240.93 237.76 241.34 234.86 241.64 232.06Z" />
		<path id="Layer" class="shp0" d="M356.45 207.61C351.94 211.41 347.74 215.61 341.24 215.51C337.34 215.5 334.74 213.3 332.95 210C332.65 209.5 332.65 208.7 332.85 208.2C334.65 203.5 337.45 201.3 343.45 202.41C345.25 202.71 347.05 203.61 348.85 204.31C351.25 205.41 353.75 206.51 356.45 207.61Z" />
		<path id="Layer" class="shp0" d="M377.41 303.62C374.51 301.62 371.41 299.62 368.51 297.52C366.31 295.92 364.61 294.01 363.61 291.31C362.51 288.41 363.51 286.01 365.12 283.81C365.62 283.12 366.82 282.62 367.72 282.62C372.82 282.32 376.51 285.32 377.71 290.32C378.81 294.82 378.61 300.22 377.41 303.62Z" />
		<path id="Layer" class="shp0" d="M236.41 291.66C238.81 288.76 241.11 286.06 243.22 283.17C246.62 278.67 252.32 277.67 256.82 280.87C258.22 281.87 258.42 282.87 258.12 284.37C257.41 289.07 255.11 291.97 250.41 292.87C248.11 293.27 245.71 293.37 243.41 293.17C241.01 292.96 238.61 292.16 236.41 291.66Z" />
		<path id="Layer" class="shp0" d="M392.64 228.03C390.24 230.52 388.04 232.62 386.14 234.92C383.23 238.32 378.23 240.52 375.03 239.32C373.43 238.62 372.03 237.32 370.53 236.22C370.23 236.02 370.14 235.32 370.14 234.82C371.34 228.12 375.24 225.02 382.54 225.92C385.94 226.32 389.34 227.32 392.64 228.03Z" />
		<path id="Layer" class="shp0" d="M337.43 247.6C333.93 252.9 330.83 258.2 324.13 259.2C322.23 259.5 320.03 258.8 318.23 258C316.93 257.5 315.13 255.99 315.13 255.09C315.23 253.09 315.93 250.69 317.23 249.2C319.63 246.2 323.23 245.9 326.83 246.4C328.93 246.7 330.93 247.3 332.93 247.6C334.23 247.7 335.63 247.6 337.43 247.6Z" />
		<path id="Layer" class="shp0" d="M234.34 213.46C236.74 217.26 238.24 221.56 238.54 226.16C238.84 230.76 235.34 234.96 230.83 235.96C229.33 236.36 227.24 234.86 225.94 232.66C224.34 229.96 224.74 227.16 226.04 224.66C227.14 222.56 228.74 220.66 230.14 218.76C231.54 217.06 232.94 215.26 234.34 213.46Z" />
		<path id="Layer" class="shp0" d="M331.54 222C331.04 226.6 329.84 231 327.24 234.9C324.23 239.4 319.63 239.9 315.13 238.19C314.53 237.99 314.03 237.19 313.73 236.49C312.14 232.39 313.84 228.49 318.04 226.2C318.94 225.7 320.04 225.3 321.04 225.1C322.84 224.6 324.64 224.4 326.44 223.9C328.14 223.4 329.74 222.6 331.54 222Z" />
		<path id="Layer" class="shp0" d="M390.22 269.62C387.52 270.72 384.82 271.72 382.22 272.82C379.32 274.02 376.42 275.02 373.22 274.22C369.92 273.42 368.42 271.12 367.52 268.22C367.42 267.72 367.62 267.02 367.92 266.52C370.32 262.72 374.82 260.42 379.92 262.52C384.12 264.12 387.32 266.82 390.22 269.62Z" />
		<path id="Layer" class="shp0" d="M327.42 275.1C322.12 277.1 314.02 277.09 310.22 272.69C308.72 270.99 308.02 268.49 307.22 266.29C307.02 265.59 307.72 264.29 308.32 263.69C310.42 261.99 312.72 261.49 315.42 262.39C319.52 263.8 322.62 266.2 324.52 270.3C325.32 271.9 326.42 273.4 327.42 275.1Z" />
		<path id="Layer" class="shp0" d="M343.41 554.41C343.41 550.31 343.51 546.11 343.41 542.01C343.31 539.91 344.51 540.01 345.91 540.01C347.31 540.01 348.51 539.91 348.41 542.01C348.31 550.41 348.3 558.71 348.4 567.11C348.4 569.21 347.3 569.11 345.9 569.11C344.5 569.11 343.3 569.21 343.4 567.11C343.5 562.81 343.4 558.61 343.41 554.41Z" />
	</g>
</svg>